<?xml version="1.0" encoding="utf-8"?>
<!-- Generator: Adobe Illustrator 16.0.0, SVG Export Plug-In . SVG Version: 6.00 Build 0)  -->
<!DOCTYPE svg PUBLIC "-//W3C//DTD SVG 1.1//EN" "http://www.w3.org/Graphics/SVG/1.1/DTD/svg11.dtd">
<svg version="1.1" id="レイヤー_1" xmlns="http://www.w3.org/2000/svg" xmlns:xlink="http://www.w3.org/1999/xlink" x="0px"
	 y="0px" width="595.281px" height="841.89px" viewBox="0 0 595.281 841.89" enable-background="new 0 0 595.281 841.89"
	 xml:space="preserve">
<path fill="#F7F8F8" d="M245.793,428.876l-0.744,0.553c-0.528-1.104-1.417-2.832-2.304-4.367c-0.48,2.664-1.584,5.063-3.697,7.08
	l-0.648-0.625c2.952-2.783,3.816-6.359,3.816-10.44v-10.681h0.864v10.681c0,0.959-0.048,1.895-0.144,2.786
	C243.993,425.566,245.145,427.654,245.793,428.876z M240.657,414.98c-0.216,2.304-0.648,4.896-1.368,6.336l-0.768-0.24
	c0.792-1.464,1.248-3.984,1.392-6.192L240.657,414.98z M246.321,414.284c-0.504,1.56-1.32,3.792-2.184,5.737l-0.6-0.288
	c0.864-1.968,1.632-4.225,2.04-5.737L246.321,414.284z M248.265,426.716c-0.432,1.992-1.368,4.152-2.592,5.377l-0.768-0.432
	c1.272-1.201,2.184-3.264,2.568-5.16L248.265,426.716z M247.089,417.909c-0.168,0.312-0.384,0.6-0.576,0.864l-0.72-0.432
	c1.752-2.329,2.809-4.945,3.36-7.921l0.816,0.096c-0.144,0.792-0.336,1.536-0.552,2.28h2.856h0.144h0.12l0.576,0.096
	c-0.696,5.544-2.952,9.602-6.48,11.93l-0.624-0.625c1.656-1.031,3-2.447,4.056-4.201
	C249.273,419.301,248.29,418.604,247.089,417.909z M250.401,419.373c0.36-0.672,0.672-1.392,0.912-2.16
	c-0.744-0.624-1.704-1.2-2.88-1.776c-0.288,0.648-0.624,1.296-0.984,1.92C248.625,418.029,249.609,418.701,250.401,419.373z
	 M251.554,416.493c0.264-0.912,0.48-1.896,0.648-2.929h-3.024c-0.144,0.432-0.312,0.864-0.48,1.272
	C249.826,415.388,250.786,415.94,251.554,416.493z M250.906,426.789c0.528,1.752,0.816,3.313,0.888,4.656l-0.888,0.168
	c-0.024-1.344-0.264-2.904-0.768-4.584L250.906,426.789z M260.626,424.269l-0.648,0.721c-1.656-1.271-2.856-3.625-3.552-7.489
	c-0.576,3.24-1.752,5.665-4.321,7.344l-0.648-0.625c2.809-1.799,3.913-4.487,4.345-8.255h-2.641v-0.816h2.736
	c0.12-1.44,0.192-3.024,0.216-4.752l0.84,0.024c-0.024,1.704-0.096,3.288-0.216,4.729h3.528v0.816H257
	C257.578,420.381,258.826,423.021,260.626,424.269z M254.266,426.742c0.816,1.727,1.32,3.264,1.56,4.607l-0.816,0.24
	c-0.216-1.344-0.696-2.904-1.44-4.584L254.266,426.742z M257.602,426.189c1.368,2.016,2.328,3.936,2.904,5.592l-0.84,0.313
	c-0.528-1.68-1.464-3.576-2.784-5.568L257.602,426.189z M258.346,410.756c0.912,1.032,1.56,2.016,1.944,2.952l-0.672,0.288
	c-0.384-0.912-0.984-1.872-1.824-2.904L258.346,410.756z"/>
<path fill="#F7F8F8" d="M269.193,418.437c-0.72-2.16-1.464-4.152-2.232-5.809l0.96-0.408c0.768,1.728,1.512,3.744,2.208,5.88
	c2.4-0.792,4.776-1.536,6.576-1.896c-0.648-1.44-1.968-3.577-2.928-4.705l0.84-0.456c1.032,1.224,2.4,3.6,3.048,4.993
	c0.384-0.048,0.72-0.072,1.032-0.072c3.648,0,5.521,1.584,5.521,4.92c0,2.736-1.848,4.561-5.208,4.561
	c-0.96,0-2.184-0.145-3.384-0.504l0.072-0.938c1.2,0.385,2.352,0.529,3.264,0.529c2.784,0,4.296-1.439,4.296-3.672
	c0-2.712-1.488-3.96-4.656-3.96c-1.656,0-4.873,0.936-8.185,2.088c1.368,4.175,2.544,8.689,3.216,12.312l-1.008,0.217
	c-0.624-3.576-1.8-8.088-3.12-12.217c-1.944,0.696-3.889,1.416-5.544,2.04l-0.336-0.96
	C265.281,419.805,267.249,419.109,269.193,418.437z"/>
<path fill="#F7F8F8" d="M289.425,416.108c0.792,0.024,1.632,0.048,2.568,0.048c2.52,0,5.424-0.096,8.208-0.313
	c-0.527-1.536-0.936-3.144-1.15-4.656l1.008-0.12c0.191,1.512,0.576,3.121,1.127,4.705c2.547-0.192,4.945-0.48,6.746-0.864
	l0.191,0.912c-1.801,0.36-4.129,0.624-6.625,0.84c1.08,2.88,2.617,5.543,4.344,7.202l-0.744,0.84
	c-2.902-1.176-5.688-1.824-8.543-1.824c-3.072,0-4.777,1.416-4.777,3.527c0,2.809,2.856,4.129,8.498,4.129
	c0.961,0,2.016-0.047,3.145-0.119l-0.023,0.936c-1.08,0.096-2.137,0.119-3.072,0.119c-6.361,0-9.529-1.752-9.529-5.135
	c0-2.617,2.28-4.322,5.617-4.322c2.759,0,5.4,0.553,7.873,1.441c-1.367-1.441-2.76-3.96-3.77-6.722
	c-2.927,0.216-5.999,0.312-8.711,0.312c-0.816,0-1.632,0-2.376-0.024v-0.913H289.425z"/>
<path fill="#F7F8F8" d="M318.369,414.788c0.385-1.416,0.672-2.736,0.863-3.84l1.01,0.12c-0.193,1.08-0.48,2.353-0.865,3.72h4.705
	v0.912h-4.969c-1.152,3.913-2.93,8.377-4.873,11.184l-0.889-0.525c1.922-2.664,3.625-6.89,4.73-10.658h-4.201v-0.912
	L318.369,414.788L318.369,414.788z M328.185,418.269c-0.021,0.504-0.021,1.368-0.021,2.328c0,1.584,0,3.576,0.021,5.064
	c1.656,0.672,3.289,1.656,4.586,2.688l-0.623,0.721c-1.152-0.984-2.547-1.85-3.961-2.473v0.936c0,2.496-1.32,3.865-4.178,3.865
	c-2.713,0-4.537-1.537-4.537-3.289c0-2.016,1.73-3.336,4.537-3.336c1.031,0,2.137,0.191,3.217,0.553c0-1.441,0-3.24,0-4.729
	c0-0.96,0-1.824,0-2.328L328.185,418.269L328.185,418.269z M324.009,425.613c-2.305,0-3.672,0.961-3.672,2.496
	c0,1.32,1.631,2.424,3.602,2.424c2.279,0,3.311-0.982,3.311-3c0-0.313,0-0.768,0-1.32
	C326.146,425.83,325.041,425.613,324.009,425.613z M332.746,417.909c-1.367-1.008-4.104-2.568-5.977-3.312l0.48-0.792
	c1.992,0.864,4.512,2.28,6,3.312L332.746,417.909z"/>
<path fill="#F7F8F8" d="M340.041,414.116c-0.145,1.848-0.217,3.696-0.217,5.208c0,5.953,2.328,9.914,4.178,9.914
	c1.223,0,2.207-1.992,2.928-4.752l0.863,0.359c-0.936,3.336-2.064,5.447-3.744,5.447c-2.398,0-5.207-4.344-5.207-10.92
	c0-1.56,0.047-3.432,0.168-5.328L340.041,414.116z M353.074,413.708c3.385,3.265,4.633,7.153,4.775,12.385l-1.057,0.098
	c-0.07-5.065-1.318-8.906-4.512-11.882L353.074,413.708z"/>
<image overflow="visible" width="332" height="467" xlink:href="../../../../../../みしまる　女.png"  transform="matrix(0.1369 0 0 0.1369 365.6675 390.0283)">
</image>
<image overflow="visible" width="335" height="467" xlink:href="../../../../../../みしまる　男.png"  transform="matrix(0.1369 0 0 0.1369 187.2998 390.0278)">
</image>
</svg>
